<svg width="76" height="82" viewBox="0 0 76 82" fill="none" xmlns="http://www.w3.org/2000/svg">
<path d="M14.6699 30.6735L4.94171 43.6139C2.13862 47.3429 2.39501 52.5344 5.55183 55.9703L23.9195 75.9609C25.7584 77.9619 28.3502 79.1015 31.0717 79.1015C36.3443 79.1015 44.9672 79.1015 53.5033 79.1015C65.1533 79.1015 72.92 71.8373 72.92 59.7303C72.92 59.7303 72.92 26.5226 72.92 18.2207" fill="white"/>
<path d="M14.6699 30.6735L4.94171 43.6139C2.13862 47.3429 2.39501 52.5344 5.55183 55.9703L23.9195 75.9609C25.7584 77.9619 28.3502 79.1015 31.0717 79.1015C36.3443 79.1015 44.9672 79.1015 53.5033 79.1015C65.1533 79.1015 72.92 71.8373 72.92 59.7303C72.92 59.7303 72.92 26.5226 72.92 18.2207" stroke="black" stroke-width="5" stroke-linecap="round" stroke-linejoin="round"/>
<path d="M58.3574 20.9872C58.3574 20.9872 58.3574 20.3813 58.3574 18.2199C58.3574 7.15065 72.9199 7.15065 72.9199 18.2199" fill="white"/>
<path d="M58.3574 20.9872C58.3574 20.9872 58.3574 20.3813 58.3574 18.2199C58.3574 7.15065 72.9199 7.15065 72.9199 18.2199" stroke="black" stroke-width="5" stroke-linecap="round" stroke-linejoin="round"/>
<path d="M43.7949 20.9877C43.7949 20.9877 43.7949 18.1775 43.7949 13.8547V20.9877ZM43.7949 11.3022C43.7949 11.3022 43.7949 12.774 43.7949 13.8547V11.3022ZM58.3574 20.9877C58.3574 20.9877 58.3574 20.3818 58.3574 18.2204C58.3574 17.1397 58.3574 14.9354 58.3574 13.8547C58.3574 2.78543 43.7949 2.78543 43.7949 13.8547" fill="white"/>
<path d="M43.7949 20.9877C43.7949 20.9877 43.7949 18.1775 43.7949 13.8547M43.7949 13.8547C43.7949 12.774 43.7949 11.3022 43.7949 11.3022M43.7949 13.8547C43.7949 2.78543 58.3574 2.78543 58.3574 13.8547C58.3574 14.9354 58.3574 17.1397 58.3574 18.2204C58.3574 20.3818 58.3574 20.9877 58.3574 20.9877" stroke="black" stroke-width="5" stroke-linecap="round" stroke-linejoin="round"/>
<path d="M43.7949 20.9877C43.7949 20.9877 43.7949 18.1775 43.7949 13.8547C43.7949 2.78543 58.3574 2.78543 58.3574 13.8547C58.3574 14.9354 58.3574 17.1397 58.3574 18.2204C58.3574 20.3818 58.3574 20.9877 58.3574 20.9877" fill="white"/>
<path d="M43.7949 20.9877C43.7949 20.9877 43.7949 18.1775 43.7949 13.8547C43.7949 2.78543 58.3574 2.78543 58.3574 13.8547C58.3574 14.9354 58.3574 17.1397 58.3574 18.2204C58.3574 20.3818 58.3574 20.9877 58.3574 20.9877" stroke="black" stroke-width="5" stroke-linecap="round" stroke-linejoin="round"/>
<path d="M29.2324 20.9875C29.2324 20.9875 29.2324 17.8743 29.2324 11.3019C29.2324 0.232694 43.7949 0.232694 43.7949 11.3019C43.7949 11.3019 43.7949 12.7737 43.7949 13.8545C43.7949 18.1772 43.7949 20.9875 43.7949 20.9875" fill="white"/>
<path d="M29.2324 20.9875C29.2324 20.9875 29.2324 17.8743 29.2324 11.3019C29.2324 0.232694 43.7949 0.232694 43.7949 11.3019C43.7949 11.3019 43.7949 12.7737 43.7949 13.8545C43.7949 18.1772 43.7949 20.9875 43.7949 20.9875" stroke="black" stroke-width="5" stroke-linecap="round" stroke-linejoin="round"/>
<path d="M14.6699 45.201V11.3013C14.6699 7.28943 17.9298 4.03711 21.9512 4.03711C25.9725 4.03711 29.2324 6.72588 29.2324 10.7377C29.2324 10.9209 29.2324 11.1087 29.2324 11.3013C29.2324 17.8737 29.2324 20.9869 29.2324 20.9869" fill="white"/>
<path d="M14.6699 45.201V11.3013C14.6699 7.28943 17.9298 4.03711 21.9512 4.03711C25.9725 4.03711 29.2324 6.72588 29.2324 10.7377C29.2324 10.9209 29.2324 11.1088 29.2324 11.3013C29.2324 17.8737 29.2324 20.9869 29.2324 20.9869" stroke="black" stroke-width="5" stroke-linecap="round" stroke-linejoin="round"/>
</svg>
